<svg xmlns="http://www.w3.org/2000/svg" fill="none" viewBox="0 0 68 95">
  <g clip-path="url(#a)">
    <path fill="url(#b)" d="M65 0H2.3C1 0 0 1 0 2.3v90.4C0 94 1 95 2.3 95H65c1.3 0 2.3-1 2.3-2.3V2.3C67.3 1 66.3 0 65 0Z"/>
    <path fill="#fff" d="M60.9 4.1H6.4c-1.2 0-2.2 1-2.2 2.2v74.8c0 1.2 1 2.2 2.2 2.2H61c1.2 0 2.2-1 2.2-2.2V6.3c0-1.2-1-2.2-2.2-2.2Z"/>
    <path fill="url(#c)" d="M44.8 39.6H22.5c-1 0-1.8-.8-1.8-1.8v-22c0-1 .8-1.8 1.8-1.8h22.3c1 0 1.8.8 1.8 1.8v22c0 1-.8 1.8-1.8 1.8Z"/>
    <path fill="#fff" d="M33.6 92.5c2 0 3.5-1.5 3.5-3.3 0-1.9-1.6-3.4-3.5-3.4a3.4 3.4 0 0 0-3.4 3.4c0 1.8 1.6 3.3 3.4 3.3Z"/>
    <path fill="url(#d)" d="M53 51H14.3c-1 0-1.8-.8-1.8-1.7 0-1 .8-1.8 1.8-1.8H53c1 0 1.8.8 1.8 1.8S54 51 53 51Z"/>
    <path fill="url(#e)" d="M46.5 60.8H13.6c-.6 0-1.1-.5-1.1-1.1v-.2c0-.6.5-1 1.1-1h32.9c.6 0 1.1.4 1.1 1v.2c0 .6-.5 1-1.1 1Z" opacity=".6"/>
    <path fill="url(#f)" d="M40.2 67H13.5a1 1 0 0 1-1-1v-.4c0-.5.4-1 1-1h26.7c.6 0 1 .5 1 1v.3c0 .6-.4 1-1 1Z" opacity=".3"/>
    <path fill="url(#g)" d="M43.6 72.7h-30a1 1 0 0 1-1.1-1v-.3c0-.6.5-1 1-1h30c.7 0 1.2.4 1.2 1v.2c0 .6-.5 1-1.1 1Z" opacity=".6"/>
    <path fill="#fff" d="M33.7 26.1a4 4 0 1 0 0-8 4 4 0 0 0 0 8Zm0 2c-2.7 0-8 1.4-8 4v1c0 .6.4 1.1 1 1.1h14c.6 0 1.1-.5 1.1-1v-1c0-2.7-5.4-4-8-4Z"/>
  </g>
  <defs>
    <linearGradient id="b" x1="4.1" x2="67.3" y1="45" y2="50.5" gradientUnits="userSpaceOnUse">
      <stop stop-color="#6CBCFC"/>
      <stop offset="1" stop-color="#458DFC"/>
    </linearGradient>
    <linearGradient id="c" x1="18.7" x2="48.5" y1="19.3" y2="34.7" gradientUnits="userSpaceOnUse">
      <stop stop-color="#B0F4FF"/>
      <stop offset=".1" stop-color="#A3F0FE"/>
      <stop offset=".3" stop-color="#8AE7FD"/>
      <stop offset=".5" stop-color="#77E1FD"/>
      <stop offset=".7" stop-color="#6DDDFC"/>
      <stop offset="1" stop-color="#69DCFC"/>
    </linearGradient>
    <linearGradient id="d" x1="54.8" x2="12.5" y1="49.3" y2="49.3" gradientUnits="userSpaceOnUse">
      <stop stop-color="#6CBCFC"/>
      <stop offset="1" stop-color="#458DFC"/>
    </linearGradient>
    <linearGradient id="e" x1="47.6" x2="12.5" y1="59.6" y2="59.6" gradientUnits="userSpaceOnUse">
      <stop stop-color="#6CBCFC"/>
      <stop offset="1" stop-color="#458DFC"/>
    </linearGradient>
    <linearGradient id="f" x1="41.2" x2="12.5" y1="65.8" y2="65.8" gradientUnits="userSpaceOnUse">
      <stop stop-color="#6CBCFC"/>
      <stop offset="1" stop-color="#458DFC"/>
    </linearGradient>
    <linearGradient id="g" x1="44.7" x2="12.5" y1="71.5" y2="71.5" gradientUnits="userSpaceOnUse">
      <stop stop-color="#6CBCFC"/>
      <stop offset="1" stop-color="#458DFC"/>
    </linearGradient>
    <clipPath id="a">
      <path fill="#fff" d="M0 0h67.3v95H0z"/>
    </clipPath>
  </defs>
</svg>