<svg xmlns="http://www.w3.org/2000/svg" fill="none" viewBox="0 0 68 95">
  <g clip-path="url(#a)">
    <path fill="url(#b)" d="M67.7 90.4c0 2.5-2 4.5-4.5 4.5l-58 .1a4.5 4.5 0 0 1-4.5-4.5V7c0-2.5 2-4.5 4.4-4.5h58c2.5 0 4.5 2 4.5 4.4l.1 83.6Z"/>
    <path fill="#fff" d="M61.7 90h-55c-1.3 0-2.4-1-2.4-2.4V9.8c0-1.4 1-2.4 2.4-2.4l55-.1c1.2 0 2.3 1 2.3 2.4l.1 77.9c0 1.3-1 2.4-2.4 2.4Z"/>
    <path fill="url(#c)" d="M54 13.7H13.9c-1.3 0-2.4-1-2.4-2.3V4.7c0-1.4 1-2.4 2.4-2.4h40c1.4 0 2.5 1 2.5 2.3v6.7c0 1.3-1 2.4-2.4 2.4ZM13.9 3.5c-.7 0-1.2.5-1.2 1.2v6.7c0 .6.5 1.1 1.2 1.1h40c.7 0 1.3-.5 1.3-1.2V4.6c0-.6-.6-1.2-1.2-1.2H13.9Z"/>
    <path fill="url(#d)" d="M52.8 5.1H15.4a.7.7 0 0 1-.7-.7V.8c0-.4.3-.8.7-.8h37.4c.5 0 .8.3.8.7v3.7c0 .4-.3.7-.8.7Z"/>
    <path fill="#58D6F4" d="M15.4 5.2h37.4c.4 0 .8-.4.8-.9V2.6h-39v1.8c0 .4.4.8.8.8Zm13.2 76-3.3-19.6-2.6 8.6h-7.5a.8.8 0 0 1-.8-.9c0-.4.4-.8.8-.8h6.3l4.3-14 3.3 19.6 4.2-13.5 2.2 6.4 5-12.2 5 19.4 1.7-6.2h5.4c.5 0 .9.4.9.8 0 .5-.4.9-.9.9h-4.1l-3.2 10.6-5.1-20.2-4.8 11.5-2-5.7-4.8 15.3Z"/>
    <path fill="url(#e)" d="M23 43.5H12.5a3.1 3.1 0 0 1-3.1-3V25.6c0-1.7 1.4-3.1 3-3.1H23a3 3 0 0 1 3 3l.1 14.8a3 3 0 0 1-3 3Zm-10.6-20c-1.2 0-2.1 1-2.1 2.2v14.7c0 1.2 1 2.2 2.2 2.2H23c1.2 0 2.2-1 2.2-2.2V25.7c0-1.2-1-2.2-2.2-2.2H12.4Z"/>
    <path fill="url(#f)" d="M17.7 40.7c5 0 6.6-3 6.6-3-.3-.2-.5-.5-1-.7-1.2-.9-2.3-1.2-2.7-1.6-.5-.3-.7-.9-.7-.9l-.3.2s-.2-.6 0-1.4c0 0 .3-.1.6-1.5.5.1 1-1 .8-1.5-.2-.3-.4-.2-.5-.2.1-.6.7-3.8-2.8-3.8S15 29.5 15 30c-.1 0-.3 0-.5.2-.3.5.3 1.6.8 1.5.3 1.4.6 1.4.6 1.4a4 4 0 0 1 0 1.5l-.3-.2s-.2.5-.7.9c-.4.4-1.5.7-2.8 1.6-.4.2-.7.5-.9.8 0 0 1.6 2.9 6.5 2.9Z"/>
    <path fill="url(#g)" d="M50.6 27.3H30.3a.7.7 0 0 1-.7-.7v-.1c0-.4.3-.7.7-.7h20.3c.3 0 .6.3.6.7 0 .5-.3.8-.6.8Z"/>
    <path fill="url(#h)" d="M43 31.1H30.4a.7.7 0 0 1-.7-.6v-.1c0-.4.3-.7.7-.7H43c.4 0 .7.3.7.6v.2c0 .3-.3.6-.7.6Z"/>
    <path fill="url(#i)" d="M57.6 35.7H30.3a.7.7 0 0 1-.7-.6V35c0-.4.3-.7.7-.7h27.3c.3 0 .6.2.6.6v.1c0 .4-.3.7-.6.7Z" opacity=".6"/>
    <path fill="url(#j)" d="M57 48.6H11.5a.7.7 0 1 1 0-1.5H57c.4 0 .7.4.7.8s-.3.7-.7.7Z" opacity=".6"/>
    <path fill="url(#k)" d="M57.6 40.2H30.3a.7.7 0 0 1-.7-.6v-.1c0-.4.3-.7.7-.7h27.3c.3 0 .6.3.6.6v.2c0 .3-.3.6-.6.6Z" opacity=".6"/>
  </g>
  <defs>
    <linearGradient id="b" x1="-8.7" x2="77" y1="34.7" y2="62.6" gradientUnits="userSpaceOnUse">
      <stop stop-color="#6CBCFC"/>
      <stop offset=".2" stop-color="#5EABFC"/>
      <stop offset=".4" stop-color="#509AFC"/>
      <stop offset=".7" stop-color="#4890FC"/>
      <stop offset="1" stop-color="#458DFC"/>
    </linearGradient>
    <linearGradient id="c" x1="-4.6" x2="56.4" y1="-21.4" y2="8" gradientUnits="userSpaceOnUse">
      <stop stop-color="#CFE9FF"/>
      <stop offset="1" stop-color="#A1D6FB"/>
    </linearGradient>
    <linearGradient id="d" x1="14.7" x2="53.6" y1="2.6" y2="2.6" gradientUnits="userSpaceOnUse">
      <stop stop-color="#B0F4FF"/>
      <stop offset="1" stop-color="#69DCFC"/>
    </linearGradient>
    <linearGradient id="e" x1="14.8" x2="24.6" y1="29.2" y2="41.8" gradientUnits="userSpaceOnUse">
      <stop stop-color="#6CBCFC"/>
      <stop offset="1" stop-color="#458DFC"/>
    </linearGradient>
    <linearGradient id="f" x1="13.7" x2="23.5" y1="30" y2="42.7" gradientUnits="userSpaceOnUse">
      <stop stop-color="#B0F4FF"/>
      <stop offset=".1" stop-color="#A1EFFE"/>
      <stop offset=".3" stop-color="#88E7FD"/>
      <stop offset=".5" stop-color="#77E1FD"/>
      <stop offset=".7" stop-color="#6CDDFC"/>
      <stop offset="1" stop-color="#69DCFC"/>
    </linearGradient>
    <linearGradient id="g" x1="29.6" x2="51.2" y1="26.6" y2="26.6" gradientUnits="userSpaceOnUse">
      <stop stop-color="#6CBCFC"/>
      <stop offset="1" stop-color="#458DFC"/>
    </linearGradient>
    <linearGradient id="h" x1="29.6" x2="43.8" y1="30.4" y2="30.4" gradientUnits="userSpaceOnUse">
      <stop stop-color="#6CBCFC"/>
      <stop offset="1" stop-color="#458DFC"/>
    </linearGradient>
    <linearGradient id="i" x1="29.6" x2="58.2" y1="35" y2="35" gradientUnits="userSpaceOnUse">
      <stop stop-color="#6CBCFC"/>
      <stop offset="1" stop-color="#458DFC"/>
    </linearGradient>
    <linearGradient id="j" x1="10.7" x2="57.7" y1="47.9" y2="47.9" gradientUnits="userSpaceOnUse">
      <stop stop-color="#6CBCFC"/>
      <stop offset="1" stop-color="#458DFC"/>
    </linearGradient>
    <linearGradient id="k" x1="29.6" x2="58.2" y1="39.5" y2="39.5" gradientUnits="userSpaceOnUse">
      <stop stop-color="#6CBCFC"/>
      <stop offset="1" stop-color="#458DFC"/>
    </linearGradient>
    <clipPath id="a">
      <path fill="#fff" d="M.6 0h67.1v95H.7z"/>
    </clipPath>
  </defs>
</svg>