<svg xmlns="http://www.w3.org/2000/svg" fill="none" viewBox="0 0 80 72">
  <g clip-path="url(#a)">
    <path fill="url(#b)" d="M66.5 14H13.3v57.1h53.2v-57Z"/>
    <path fill="url(#c)" d="M13 14h.3v57.1c-4.2.3-7.6-.7-10.4-3.4A9 9 0 0 1 0 61.1V24.2c0-4 2.2-7 6.3-9 2-1.1 4.4-1.3 6.7-1.2Z"/>
    <path fill="#fff" d="M57.2 14h5v57.1H17.6v-57h5.3V7.2c0-1.5.3-2.7 1.4-3.7a4 4 0 0 1 2.8-1h25.5c1.5 0 2.6.4 3.6 1.5.7.9 1 1.9 1 3v7Zm-28.6 0H51c.4 0 .4-.1.4-.5V8.3H28.6V14Z"/>
    <mask id="d" width="46" height="70" x="17" y="2" maskUnits="userSpaceOnUse" style="mask-type:alpha">
      <path fill="#F7F9FC" d="M57.2 14h5v57.1H17.6v-57h5.3V7.2c0-1.5.3-2.7 1.4-3.7a4 4 0 0 1 2.8-1h25.5c1.5 0 2.6.4 3.6 1.5.7.9 1 1.9 1 3v7Zm-28.6 0H51c.4 0 .4-.1.4-.5V8.3H28.6V14Z"/>
    </mask>
    <g mask="url(#d)">
      <path fill="url(#e)" d="M58.1 0H21v14h37.1V0Z"/>
    </g>
    <path fill="url(#f)" d="M80 24c0-3.7-2-6.5-5.7-8.6a14.4 14.4 0 0 0-7.5-1.4c-.4 0-.3.2-.3.4v56.7c1.6 0 3.2 0 4.7-.3 5.2-1.2 8.8-5.1 8.8-9.7v-37Z"/>
    <path fill="url(#g)" d="M44.2 46.8V54c0 .8-.4 1.2-1.1 1.2h-6.2c-.7 0-1.1-.4-1.1-1.2v-7.2h-7.2c-.9 0-1.2-.4-1.2-1.3v-5.9c0-.9.3-1.2 1.2-1.2h7.2v-7.2c0-.9.4-1.3 1.2-1.3h6c.8 0 1.2.4 1.2 1.3v7.2h7.2c.9 0 1.2.3 1.2 1.2v6c0 .8-.3 1.2-1.2 1.2h-7.2Z"/>
  </g>
  <defs>
    <linearGradient id="b" x1="13.3" x2="66.5" y1="42.6" y2="42.6" gradientUnits="userSpaceOnUse">
      <stop stop-color="#B0F4FF"/>
      <stop offset="1" stop-color="#69DCFC"/>
    </linearGradient>
    <linearGradient id="c" x1="0" x2="13.3" y1="42.6" y2="42.6" gradientUnits="userSpaceOnUse">
      <stop stop-color="#6CBCFC"/>
      <stop offset="1" stop-color="#458DFC"/>
    </linearGradient>
    <linearGradient id="e" x1="21" x2="58.1" y1="7" y2="7" gradientUnits="userSpaceOnUse">
      <stop stop-color="#6CBCFC"/>
      <stop offset="1" stop-color="#458DFC"/>
    </linearGradient>
    <linearGradient id="f" x1="66.5" x2="80" y1="42.6" y2="42.6" gradientUnits="userSpaceOnUse">
      <stop stop-color="#6CBCFC"/>
      <stop offset="1" stop-color="#458DFC"/>
    </linearGradient>
    <linearGradient id="g" x1="27.4" x2="52.6" y1="42.6" y2="42.6" gradientUnits="userSpaceOnUse">
      <stop stop-color="#6CBCFC"/>
      <stop offset="1" stop-color="#458DFC"/>
    </linearGradient>
    <clipPath id="a">
      <path fill="#fff" d="M0 0h80v71.2H0z"/>
    </clipPath>
  </defs>
</svg>