<svg xmlns="http://www.w3.org/2000/svg" fill="none" viewBox="0 0 62 85">
  <g clip-path="url(#a)">
    <path fill="url(#b)" d="m61.9 26.5-.2 39.8V74c-.1 6.1-6 11-13 11l-35.8-.2c-7.2 0-13-5-12.9-11.1l.2-47.5c0-5 3.9-9.2 9.1-10.5v-3.9L53 12v3.9c5.2 1.4 9 5.6 9 10.6Z"/>
    <path fill="url(#c)" d="M56.1 1.8v9c0 .8-.7 1.4-1.4 1.4H39l-2.4-.1h-8.9l-2.1-.1H14.4l-2.1-.1H7.5c-.7 0-1.4-.7-1.4-1.4V10l.1-8.2v-.5C6.2.6 6.8 0 7.6 0H19l2.3.1h10.9l2.3.1h11l2.4.1h6.8c.8 0 1.4.7 1.4 1.5Z"/>
    <path fill="url(#d)" d="M56.1 2.1v8.2H27.4l-2.3-.1H8L6.1 10l.1-8.2h16.4l4.9.1h19.4l2.5.1h6.7Z"/>
    <path fill="#F7F9FC" d="M61.8 34.9.2 34.6 0 61.9l61.7.3.1-27.3Z"/>
    <path fill="#FBFCF7" d="M61.8 34.9.2 34.6v5l61.6.2v-5Z"/>
    <path fill="url(#e)" d="M24.2 45.6h-4v-4h-5.4v4h-4V51h4v4h5.4v-4h4v-5.4Z"/>
    <path fill="url(#f)" d="m51.2 47-19.7-.2a1 1 0 0 1-1-1v-.4c0-.5.5-1 1-1l19.7.1c.6 0 1 .5 1 1v.4c0 .6-.4 1-1 1Z"/>
    <path fill="url(#g)" d="m51.2 52.8-19.7-.1a1 1 0 0 1-1-1v-.4c0-.6.5-1 1-1l19.7.1c.5 0 1 .4 1 1v.4c0 .5-.5 1-1 1Z" opacity=".5"/>
    <path fill="#1A6FB5" d="M6.1 1.8v4.5l.1 4v.5c0 .8.6 1.4 1.4 1.4h15.7l2.4-.1h10.9L39 12h11l2.3-.1h2.5c.8 0 1.4-.7 1.4-1.4V10A122.6 122.6 0 0 1 7.5.4c-.7 0-1.4.6-1.4 1.4Z" opacity=".1"/>
  </g>
  <defs>
    <linearGradient id="b" x1="0" x2="57.1" y1="11.3" y2="90.2" gradientUnits="userSpaceOnUse">
      <stop stop-color="#6CBCFC"/>
      <stop offset="1" stop-color="#458DFC"/>
    </linearGradient>
    <linearGradient id="c" x1="-629.9" x2="-27.6" y1="-39.9" y2="2" gradientUnits="userSpaceOnUse">
      <stop stop-color="#B0F4FF"/>
      <stop offset=".1" stop-color="#A9F2FF"/>
      <stop offset=".3" stop-color="#8DE8FE"/>
      <stop offset=".5" stop-color="#79E1FD"/>
      <stop offset=".8" stop-color="#6DDDFC"/>
      <stop offset="1" stop-color="#69DCFC"/>
    </linearGradient>
    <linearGradient id="d" x1="6.1" x2="56.1" y1="6.1" y2="6.1" gradientUnits="userSpaceOnUse">
      <stop stop-color="#B0F4FF"/>
      <stop offset=".1" stop-color="#A9F2FF"/>
      <stop offset=".3" stop-color="#8DE8FE"/>
      <stop offset=".5" stop-color="#79E1FD"/>
      <stop offset=".8" stop-color="#6DDDFC"/>
      <stop offset="1" stop-color="#69DCFC"/>
    </linearGradient>
    <linearGradient id="e" x1="22" x2="12.6" y1="43.1" y2="53.9" gradientUnits="userSpaceOnUse">
      <stop stop-color="#6CBCFC"/>
      <stop offset="1" stop-color="#458DFC"/>
    </linearGradient>
    <linearGradient id="f" x1="52.4" x2="28.9" y1="45.7" y2="45.7" gradientUnits="userSpaceOnUse">
      <stop stop-color="#6CBCFC"/>
      <stop offset="1" stop-color="#458DFC"/>
    </linearGradient>
    <linearGradient id="g" x1="30.6" x2="52.2" y1="51.5" y2="51.5" gradientUnits="userSpaceOnUse">
      <stop stop-color="#6CBCFC"/>
      <stop offset="1" stop-color="#458DFC"/>
    </linearGradient>
    <clipPath id="a">
      <path fill="#fff" d="M0 0h61.9v85H0z"/>
    </clipPath>
  </defs>
</svg>