<svg xmlns="http://www.w3.org/2000/svg" fill="none" viewBox="0 0 70 95">
  <g clip-path="url(#a)">
    <path fill="url(#b)" d="M69.4 4.3v86.4c0 2.4-1.9 4.3-4.3 4.3H4.3C2 95 0 93 0 90.7V4.3C0 2 2 0 4.3 0h60.8c2.4 0 4.3 2 4.3 4.3Z"/>
    <path fill="url(#c)" d="M65 8v79a4 4 0 0 1-3.8 4H7.8A4 4 0 0 1 4 87V8a4 4 0 0 1 3.8-4h53.4A4 4 0 0 1 65 8Z"/>
    <path fill="url(#d)" d="M26.9 18.3v3.9c0 .3-.2.5-.5.5h-4.8c-.3 0-.6.2-.6.5V28c0 .3-.2.5-.5.5h-3.9a.5.5 0 0 1-.5-.5v-4.8c0-.3-.2-.5-.5-.5h-4.8a.5.5 0 0 1-.5-.5v-4c0-.2.2-.5.5-.5h4.8c.3 0 .5-.2.5-.5v-4.8c0-.3.2-.5.5-.5h4c.2 0 .5.2.5.5v4.8c0 .3.2.5.5.5h4.8c.3 0 .5.3.5.6Z"/>
    <path fill="url(#e)" d="M58.6 39.7H10.8a.6.6 0 0 1-.5-.6v-1.8c0-.3.2-.6.5-.6h47.8c.3 0 .5.3.5.6V39c0 .3-.2.6-.5.6Z" opacity=".5"/>
    <path fill="url(#f)" d="M58.6 17H34.9a.6.6 0 0 1-.6-.5v-1.8c0-.3.3-.6.6-.6h23.7c.3 0 .5.3.5.6v1.8c0 .3-.2.6-.5.6Z"/>
    <path fill="url(#g)" d="M51.6 24.7H34.9a.6.6 0 0 1-.6-.5v-1.9c0-.3.3-.5.6-.5h16.7c.3 0 .5.2.5.5v1.9c0 .3-.2.5-.5.5Z" opacity=".5"/>
    <path fill="url(#h)" d="M58.6 48.3H10.8a.6.6 0 0 1-.5-.6V46c0-.3.2-.6.5-.6h47.8c.3 0 .5.3.5.6v1.8c0 .3-.2.6-.5.6Z" opacity=".5"/>
    <path fill="url(#i)" d="M58.6 57H10.8a.6.6 0 0 1-.5-.7v-1.8c0-.3.2-.5.5-.5h47.8c.3 0 .5.2.5.5v1.9c0 .3-.2.5-.5.5Z" opacity=".5"/>
    <path fill="url(#j)" d="M58.6 65.6H10.8a.6.6 0 0 1-.5-.6v-1.8c0-.3.2-.6.5-.6h47.8c.3 0 .5.3.5.6V65c0 .3-.2.6-.5.6Z" opacity=".5"/>
    <path fill="url(#k)" d="M58.6 74.2H10.8a.6.6 0 0 1-.5-.6v-1.8c0-.3.2-.6.5-.6h47.8c.3 0 .5.3.5.6v1.8c0 .3-.2.6-.5.6Z" opacity=".5"/>
    <path fill="url(#l)" d="M58.6 82.8H10.8a.6.6 0 0 1-.5-.6v-1.8c0-.3.2-.6.5-.6h47.8c.3 0 .5.3.5.6v1.8c0 .3-.2.6-.5.6Z" opacity=".5"/>
    <path fill="#1A6FB5" fill-opacity=".4" d="M69.4 4.3v86.4c0 2.4-1.9 4.3-4.3 4.3H4.3C2 95 0 93 0 90.7v-1.5C37 74 54.4 15.2 58.3 0H65c2.4 0 4.3 2 4.3 4.3Z" opacity=".1"/>
  </g>
  <defs>
    <linearGradient id="b" x1="95" x2="-6" y1="126" y2="-5.5" gradientUnits="userSpaceOnUse">
      <stop offset=".3" stop-color="#5BA7FC"/>
      <stop offset="1" stop-color="#69B8FC"/>
    </linearGradient>
    <linearGradient id="c" x1="8.6" x2="57.9" y1="7" y2="78" gradientUnits="userSpaceOnUse">
      <stop offset=".3" stop-color="#fff"/>
      <stop offset="1" stop-color="#fff"/>
    </linearGradient>
    <linearGradient id="d" x1="10" x2="25" y1="9.5" y2="34" gradientUnits="userSpaceOnUse">
      <stop stop-color="#B0F4FF"/>
      <stop offset=".4" stop-color="#80E4FD"/>
      <stop offset="1" stop-color="#6CDDFC"/>
    </linearGradient>
    <linearGradient id="e" x1="10.3" x2="59.1" y1="38.2" y2="38.2" gradientUnits="userSpaceOnUse">
      <stop stop-color="#6CBCFC"/>
      <stop offset="1" stop-color="#458DFC"/>
    </linearGradient>
    <linearGradient id="f" x1="34.3" x2="59.1" y1="15.6" y2="15.6" gradientUnits="userSpaceOnUse">
      <stop stop-color="#6CBCFC"/>
      <stop offset="1" stop-color="#458DFC"/>
    </linearGradient>
    <linearGradient id="g" x1="34.3" x2="52.1" y1="23.3" y2="23.3" gradientUnits="userSpaceOnUse">
      <stop stop-color="#6CBCFC"/>
      <stop offset="1" stop-color="#458DFC"/>
    </linearGradient>
    <linearGradient id="h" x1="10.3" x2="59.1" y1="46.8" y2="46.8" gradientUnits="userSpaceOnUse">
      <stop stop-color="#6CBCFC"/>
      <stop offset="1" stop-color="#458DFC"/>
    </linearGradient>
    <linearGradient id="i" x1="10.3" x2="59.1" y1="55.5" y2="55.5" gradientUnits="userSpaceOnUse">
      <stop stop-color="#6CBCFC"/>
      <stop offset="1" stop-color="#458DFC"/>
    </linearGradient>
    <linearGradient id="j" x1="10.3" x2="59.1" y1="64.1" y2="64.1" gradientUnits="userSpaceOnUse">
      <stop stop-color="#6CBCFC"/>
      <stop offset="1" stop-color="#458DFC"/>
    </linearGradient>
    <linearGradient id="k" x1="10.3" x2="59.1" y1="72.7" y2="72.7" gradientUnits="userSpaceOnUse">
      <stop stop-color="#6CBCFC"/>
      <stop offset="1" stop-color="#458DFC"/>
    </linearGradient>
    <linearGradient id="l" x1="10.3" x2="59.1" y1="81.3" y2="81.3" gradientUnits="userSpaceOnUse">
      <stop stop-color="#6CBCFC"/>
      <stop offset="1" stop-color="#458DFC"/>
    </linearGradient>
    <clipPath id="a">
      <path fill="#fff" d="M0 0h69.4v95H0z"/>
    </clipPath>
  </defs>
</svg>